<svg width="295" height="39" viewBox="0 0 295 39" fill="none" xmlns="http://www.w3.org/2000/svg">
<path d="M0.403409 8.45455V0.181817H33.2727V8.45455H21.8977V38H11.7784V8.45455H0.403409ZM46.7621 38.517C43.7337 38.517 41.1238 37.9384 38.9325 36.7812C36.7536 35.6117 35.0732 33.9375 33.8913 31.7585C32.7218 29.5672 32.1371 26.9451 32.1371 23.892C32.1371 20.9621 32.728 18.4015 33.9098 16.2102C35.0916 14.0189 36.7597 12.3139 38.9141 11.0952C41.0684 9.87642 43.6106 9.26705 46.5405 9.26705C48.6825 9.26705 50.6214 9.59943 52.3572 10.2642C54.093 10.929 55.5765 11.8954 56.8075 13.1634C58.0386 14.419 58.9865 15.9455 59.6513 17.7429C60.3161 19.5402 60.6484 21.5653 60.6484 23.8182V26.1818H35.3132V20.5682H51.2678C51.2554 19.7557 51.0462 19.0417 50.6399 18.4261C50.246 17.7983 49.7105 17.312 49.0334 16.9673C48.3686 16.6103 47.6115 16.4318 46.7621 16.4318C45.9373 16.4318 45.1802 16.6103 44.4908 16.9673C43.8014 17.312 43.2474 17.7921 42.8288 18.4077C42.4226 19.0232 42.2071 19.7434 42.1825 20.5682V26.625C42.1825 27.536 42.3733 28.3485 42.755 29.0625C43.1366 29.7765 43.6844 30.3366 44.3984 30.7429C45.1125 31.1491 45.9742 31.3523 46.9837 31.3523C47.6854 31.3523 48.3255 31.2538 48.9041 31.0568C49.495 30.8598 49.9998 30.5767 50.4183 30.2074C50.8369 29.8258 51.1446 29.3703 51.3416 28.8409H60.6484C60.3284 30.8106 59.5713 32.5218 58.3771 33.9744C57.183 35.4148 55.6011 36.535 53.6314 37.3352C51.674 38.1231 49.3842 38.517 46.7621 38.517ZM78.4727 38.517C75.395 38.517 72.7605 37.9077 70.5692 36.6889C68.378 35.4579 66.6976 33.7467 65.5281 31.5554C64.3585 29.3518 63.7738 26.7973 63.7738 23.892C63.7738 20.9867 64.3585 18.4384 65.5281 16.2472C66.6976 14.0436 68.378 12.3324 70.5692 11.1136C72.7605 9.88258 75.395 9.26705 78.4727 9.26705C81.2549 9.26705 83.6616 9.77178 85.6928 10.7812C87.7364 11.7784 89.3183 13.1941 90.4386 15.0284C91.5588 16.8504 92.1251 18.9924 92.1374 21.4545H82.6829C82.5475 19.965 82.1166 18.8324 81.3903 18.0568C80.6763 17.2689 79.753 16.875 78.6204 16.875C77.734 16.875 76.9585 17.1335 76.2937 17.6506C75.6289 18.1553 75.1119 18.9247 74.7425 19.9588C74.3732 20.9806 74.1886 22.267 74.1886 23.8182C74.1886 25.3693 74.3732 26.6619 74.7425 27.696C75.1119 28.7178 75.6289 29.4872 76.2937 30.0043C76.9585 30.509 77.734 30.7614 78.6204 30.7614C79.3713 30.7614 80.0361 30.589 80.6147 30.2443C81.1933 29.8873 81.6611 29.3703 82.0181 28.6932C82.3874 28.0038 82.609 27.1667 82.6829 26.1818H92.1374C92.1005 28.6809 91.5281 30.8598 90.4201 32.7188C89.3121 34.5653 87.7425 35.9934 85.7113 37.0028C83.6924 38.0123 81.2795 38.517 78.4727 38.517ZM106.536 22.0455V38H96.343V0.181817H106.167V15.0284H106.462C107.103 13.2187 108.167 11.8092 109.657 10.7997C111.147 9.77794 112.938 9.26705 115.031 9.26705C117.037 9.26705 118.779 9.72254 120.256 10.6335C121.746 11.5445 122.897 12.8002 123.71 14.4006C124.534 16.0009 124.941 17.8352 124.928 19.9034V38H114.735V22.0455C114.747 20.642 114.397 19.5402 113.683 18.7401C112.981 17.9399 111.978 17.5398 110.673 17.5398C109.848 17.5398 109.121 17.7244 108.494 18.0938C107.878 18.4508 107.398 18.9678 107.053 19.6449C106.721 20.3097 106.549 21.1098 106.536 22.0455ZM136.774 38L125.621 0.181817H137.07L142.24 23.4489H142.536L148.666 0.181817H157.678L163.808 23.5227H164.104L169.274 0.181817H180.723L169.57 38H159.746L153.32 16.875H153.024L146.598 38H136.774ZM194.559 38.517C191.481 38.517 188.846 37.9077 186.655 36.6889C184.464 35.4579 182.783 33.7467 181.614 31.5554C180.444 29.3518 179.86 26.7973 179.86 23.892C179.86 20.9867 180.444 18.4384 181.614 16.2472C182.783 14.0436 184.464 12.3324 186.655 11.1136C188.846 9.88258 191.481 9.26705 194.559 9.26705C197.636 9.26705 200.271 9.88258 202.462 11.1136C204.653 12.3324 206.334 14.0436 207.503 16.2472C208.673 18.4384 209.257 20.9867 209.257 23.892C209.257 26.7973 208.673 29.3518 207.503 31.5554C206.334 33.7467 204.653 35.4579 202.462 36.6889C200.271 37.9077 197.636 38.517 194.559 38.517ZM194.632 30.983C195.494 30.983 196.239 30.6937 196.867 30.1151C197.495 29.5365 197.981 28.7116 198.326 27.6406C198.67 26.5696 198.843 25.2955 198.843 23.8182C198.843 22.3286 198.67 21.0545 198.326 19.9957C197.981 18.9247 197.495 18.0999 196.867 17.5213C196.239 16.9427 195.494 16.6534 194.632 16.6534C193.721 16.6534 192.94 16.9427 192.287 17.5213C191.635 18.0999 191.136 18.9247 190.792 19.9957C190.447 21.0545 190.275 22.3286 190.275 23.8182C190.275 25.2955 190.447 26.5696 190.792 27.6406C191.136 28.7116 191.635 29.5365 192.287 30.1151C192.94 30.6937 193.721 30.983 194.632 30.983ZM213.394 38V9.63636H223.292V15.0284H223.587C224.104 13.0341 224.923 11.5753 226.043 10.652C227.176 9.72869 228.499 9.26705 230.013 9.26705C230.456 9.26705 230.893 9.30398 231.324 9.37784C231.767 9.43939 232.192 9.53172 232.598 9.65483V18.3523C232.094 18.1799 231.472 18.0507 230.733 17.9645C229.995 17.8783 229.361 17.8352 228.831 17.8352C227.834 17.8352 226.935 18.063 226.135 18.5185C225.347 18.9616 224.726 19.5895 224.27 20.402C223.815 21.2022 223.587 22.1439 223.587 23.2273V38H213.394ZM245.1 31.2784L245.174 19.1648H246.503L253.373 9.63636H264.821L253.299 24.483H250.418L245.1 31.2784ZM235.941 38V0.181817H246.134V38H235.941ZM253.446 38L246.946 26.7727L253.594 19.5341L265.117 38H253.446ZM293.402 18.8693H284.021C283.972 18.2907 283.769 17.7921 283.412 17.3736C283.055 16.955 282.593 16.6349 282.027 16.4134C281.473 16.1795 280.857 16.0625 280.18 16.0625C279.306 16.0625 278.555 16.2225 277.928 16.5426C277.3 16.8627 276.992 17.3182 277.004 17.9091C276.992 18.3277 277.17 18.7154 277.54 19.0724C277.921 19.4295 278.654 19.7064 279.737 19.9034L285.499 20.9375C288.404 21.4669 290.564 22.3594 291.98 23.6151C293.408 24.8584 294.128 26.5265 294.141 28.6193C294.128 30.6383 293.525 32.3925 292.331 33.8821C291.149 35.3594 289.53 36.5043 287.474 37.3168C285.431 38.117 283.098 38.517 280.476 38.517C276.143 38.517 272.751 37.6307 270.301 35.858C267.864 34.0852 266.503 31.7462 266.22 28.8409H276.339C276.475 29.7396 276.918 30.4351 277.669 30.9276C278.432 31.4077 279.393 31.6477 280.55 31.6477C281.485 31.6477 282.255 31.4877 282.858 31.1676C283.473 30.8475 283.787 30.392 283.8 29.8011C283.787 29.2595 283.517 28.8286 282.987 28.5085C282.47 28.1884 281.658 27.9299 280.55 27.733L275.527 26.8466C272.634 26.3419 270.467 25.3816 269.027 23.9659C267.587 22.5502 266.873 20.7282 266.885 18.5C266.873 16.5303 267.39 14.8622 268.436 13.4957C269.495 12.1169 271.003 11.0705 272.96 10.3565C274.93 9.63021 277.263 9.26705 279.959 9.26705C284.058 9.26705 287.29 10.1165 289.653 11.8153C292.029 13.5142 293.279 15.8655 293.402 18.8693Z" fill="#5D87FF"/>
</svg>
